<?xml version="1.0" encoding="utf-8"?>
<!-- Generator: Adobe Illustrator 25.4.1, SVG Export Plug-In . SVG Version: 6.00 Build 0)  -->
<svg version="1.1" id="图层_1" xmlns="http://www.w3.org/2000/svg" xmlns:xlink="http://www.w3.org/1999/xlink" x="0px" y="0px"
	 viewBox="0 0 1600 900" style="enable-background:new 0 0 1600 900;" xml:space="preserve">
<style type="text/css">
	.st0{fill:none;}
	.st1{fill:#C6DD7F;}
	.st2{fill:#E9DDB7;}
	.st3{fill:#A6D0E4;}
	.st4{fill:url(#SVGID_1_);}
	.st5{fill:url(#SVGID_00000045592045955130245800000003005008178470982075_);}
	.st6{fill:url(#SVGID_00000030460342111842411080000013102005372574839964_);}
	.st7{fill:url(#SVGID_00000034070604877694296590000001299690044700311985_);}
	.st8{fill:url(#SVGID_00000161619320713662326080000007488393716206035369_);}
	.st9{fill:url(#SVGID_00000018196097095963182850000009389422061229582771_);}
	.st10{fill:url(#SVGID_00000159461967191934923880000000711440663397920668_);}
	.st11{fill:url(#SVGID_00000108287397982096918920000000099530649956133505_);}
	.st12{fill:#F7931E;}
	.st13{fill:url(#SVGID_00000044138265850042892210000002473197433263915163_);}
	.st14{fill:url(#SVGID_00000049214021076384859200000015252456669825576845_);}
	.st15{fill:url(#SVGID_00000147199926482994376240000004546470008992730026_);}
	.st16{fill:url(#SVGID_00000173868057317170689170000004304489149560943781_);}
	.st17{fill:#FBD72B;}
	.st18{fill:#F8C72C;}
	.st19{fill:url(#SVGID_00000080199373011840592950000017307777257871340939_);}
	.st20{fill:#EB7E23;}
	.st21{fill:url(#SVGID_00000097486775020353695160000008846295505901042061_);}
	.st22{fill:#F39800;}
	.st23{fill:url(#SVGID_00000158722956735345751200000003046897299782083771_);}
	.st24{fill:url(#SVGID_00000174574583485534126590000015643311488399851143_);}
	.st25{fill:#CC681D;}
	.st26{fill:url(#SVGID_00000044876497591286930320000006375058709565005458_);}
	.st27{fill:url(#SVGID_00000126310083778706614530000014223066064687490176_);}
	.st28{fill:url(#SVGID_00000036959265798899471910000012962587549303359628_);}
	.st29{fill:url(#SVGID_00000085947936378623852070000003686665587289601200_);}
	.st30{fill:#F8AA2C;}
	.st31{fill:url(#SVGID_00000101794898674165532430000002501522198638027425_);}
	.st32{fill:url(#SVGID_00000036951204182495467870000016801214380246644914_);}
	.st33{fill:url(#SVGID_00000132080832007299241900000012885691438301146302_);}
	.st34{fill:url(#SVGID_00000164493196868421659960000017280421982150404493_);}
	.st35{fill:url(#SVGID_00000150101876648260638450000012124152585801313448_);}
	.st36{fill:none;stroke:#000000;stroke-miterlimit:10;}
	.st37{fill:url(#SVGID_00000135659884603237454220000010614432706083781258_);}
	.st38{fill:url(#SVGID_00000041261925829164711790000001503238064110551476_);}
	.st39{fill:url(#小白花);}
</style>
<pattern  width="144.13" height="138.36" patternUnits="userSpaceOnUse" id="小白花" viewBox="99.96 -216.83 144.13 138.36" style="overflow:visible;">
	<g>
		<rect x="99.96" y="-216.83" class="st0" width="144.13" height="138.36"/>
		<g>
			<path class="st1" d="M311.04-58.31c-11.76-1.38-19.37,0.35-22.65,3.11c-3.02,2.54-4.96,5.41-2.25,11.93
				c2.94,7.09,1.53,14.73-5.54,15.91c-6.22,1.04-10.89-4.84-11.24-12.28c-0.24-5.18-1.9-8.3-5.53-7.61
				c-3.63,0.69-4.63,5.9-3.63,11.76c1.38,8.13,5.54,11.76,6.23,20.23c0.49,6.05-2.94,13.66-12.45,15.04
				c-9.3,1.35-15.91-4.32-16.6-10.55c-0.73-6.59,3.63-10.89,3.11-17.64c-0.52-6.75-4.01-10.17-5.88-17.29
				c-2.77-10.55,1.21-19.02,7.78-22.65c14.75-8.15,22.83,3.64,35.97,1.56c10.9-1.73,23.35-18.16,33.03-19.54
				c8.23-1.17,13.83,4.67,15.04,14.01C327.64-62.98,321.69-57.05,311.04-58.31z M268.84-57.79c0-2.29-1.86-4.15-4.15-4.15
				c-2.29,0-4.15,1.86-4.15,4.15s1.86,4.15,4.15,4.15C266.98-53.64,268.84-55.5,268.84-57.79z M318.3-73.18
				c0-0.96-0.78-1.73-1.73-1.73c-0.96,0-1.73,0.77-1.73,1.73s0.77,1.73,1.73,1.73C317.52-71.45,318.3-72.22,318.3-73.18z"/>
		</g>
		<g>
			<path class="st2" d="M148.8-77.49c0,7.17,4.59,13.81-1,16.33c-8.5,3.83-28-14.33-28-36.17c0-12,8.67-19,17.83-19
				c12.33,0,18,8.17,18,17.5C155.63-89.5,148.8-85.69,148.8-77.49z M143.39-82.86c0-1.15-0.93-2.08-2.07-2.08
				c-1.15,0-2.08,0.93-2.08,2.08c0,1.15,0.93,2.08,2.08,2.08C142.46-80.79,143.39-81.72,143.39-82.86z"/>
			<path class="st3" d="M223.49-54c-7.87,2.74-19.44-15.3-17.67-27.02c1.24-8.23,7.12-13.19,13.09-14.22
				c7.53-1.3,12.9,2.6,13.3,7.24c0.55,6.31-3.63,7.52-4.22,14.96C227.43-65.9,231.68-56.85,223.49-54z M219.71-81.51
				c0-1.43-1.16-2.59-2.59-2.59c-1.43,0-2.59,1.16-2.59,2.59c0,1.43,1.16,2.59,2.59,2.59C218.54-78.91,219.71-80.08,219.71-81.51z"
				/>
			<path class="st2" d="M119.35-76.47c0,1.43-1.16,2.59-2.59,2.59c-1.43,0-2.59-1.16-2.59-2.59s1.16-2.59,2.59-2.59
				C118.19-79.06,119.35-77.9,119.35-76.47z"/>
			<path class="st3" d="M184.57-84.19c0.74,8.1,12.67,7.02,17.9,14.21c10.52,14.47-1.22,46.37-21.63,46.37
				c-11.74,0-24.22-9.72-24.22-29.22c0-15.83,10.17-21.5,8.25-42.17c-1.01-10.83-12.5-20.34-12.5-34.75
				c0-5.92,3.59-13.45,11.55-13.45c7.05,0,10.82,5.95,10.82,12.9c0,6.8-5.38,15.74,1.38,19.05c5.24,2.57,13.21-4.77,19.5-6.75
				c5.19-1.64,12.39,0.22,14.75,8.5c2.53,8.88-3.25,14.75-11.59,16.69C192.47-91.32,183.98-90.63,184.57-84.19z M168.59-114.75
				c0-1.82-1.47-3.29-3.29-3.29c-1.81,0-3.29,1.47-3.29,3.29c0,1.81,1.47,3.29,3.29,3.29C167.12-111.46,168.59-112.93,168.59-114.75
				z M194.57-105.05c1.29,0,2.33-1.04,2.33-2.33c0-1.29-1.04-2.33-2.33-2.33c-1.29,0-2.33,1.04-2.33,2.33
				C192.24-106.1,193.29-105.05,194.57-105.05z M174.59-45.38c0-1.82-1.47-3.29-3.29-3.29c-1.81,0-3.29,1.47-3.29,3.29
				c0,1.81,1.47,3.29,3.29,3.29C173.12-42.1,174.59-43.57,174.59-45.38z"/>
			<path class="st1" d="M166.91-58.31c-11.76-1.38-19.37,0.35-22.65,3.11c-3.02,2.54-4.96,5.41-2.25,11.93
				c2.94,7.09,1.53,14.73-5.54,15.91c-6.22,1.04-10.89-4.84-11.24-12.28c-0.24-5.18-1.9-8.3-5.53-7.61
				c-3.63,0.69-4.63,5.9-3.63,11.76c1.38,8.13,5.54,11.76,6.23,20.23c0.49,6.05-2.94,13.66-12.45,15.04
				c-9.3,1.35-15.91-4.32-16.6-10.55c-0.73-6.59,3.63-10.89,3.11-17.64c-0.52-6.75-4.01-10.17-5.88-17.29
				c-2.77-10.55,1.21-19.02,7.78-22.65c14.75-8.15,22.83,3.64,35.97,1.56c10.9-1.73,23.35-18.16,33.03-19.54
				c8.23-1.17,13.83,4.67,15.04,14.01C183.51-62.98,177.56-57.05,166.91-58.31z M124.71-57.79c0-2.29-1.86-4.15-4.15-4.15
				c-2.29,0-4.15,1.86-4.15,4.15s1.86,4.15,4.15,4.15C122.85-53.64,124.71-55.5,124.71-57.79z M174.17-73.18
				c0-0.96-0.78-1.73-1.73-1.73c-0.96,0-1.73,0.77-1.73,1.73s0.77,1.73,1.73,1.73C173.4-71.45,174.17-72.22,174.17-73.18z"/>
		</g>
		<g>
			<path class="st3" d="M290.28-104.84c0,6.23-4.15,10.72-8.65,11.59c-4.5,0.87-8.32-1.28-12.97,1.21
				c-4.84,2.59-7.09,11.07-16.78,11.07c-7.96,0-15.22-7.96-15.22-18.85c0-20.23,13.14-29.23,25.59-29.23
				C278.87-129.05,290.28-116.43,290.28-104.84z M270.57-119.19c0-2.1-1.7-3.8-3.8-3.8c-2.1,0-3.8,1.7-3.8,3.8
				c0,2.1,1.7,3.8,3.8,3.8C268.87-115.39,270.57-117.09,270.57-119.19z"/>
			<path class="st1" d="M311.04-196.67c-11.76-1.38-19.37,0.35-22.65,3.11c-3.02,2.54-4.96,5.41-2.25,11.93
				c2.94,7.09,1.53,14.73-5.54,15.91c-6.22,1.04-10.89-4.84-11.24-12.28c-0.24-5.18-1.9-8.3-5.53-7.61
				c-3.63,0.69-4.63,5.9-3.63,11.76c1.38,8.13,5.54,11.76,6.23,20.23c0.49,6.05-2.94,13.66-12.45,15.04
				c-9.3,1.35-15.91-4.32-16.6-10.55c-0.73-6.59,3.63-10.89,3.11-17.64c-0.52-6.75-4.01-10.17-5.88-17.29
				c-2.77-10.55,1.21-19.02,7.78-22.65c14.75-8.15,22.83,3.64,35.97,1.56c10.9-1.73,23.35-18.16,33.03-19.54
				c8.23-1.17,13.83,4.67,15.04,14.01C327.64-201.34,321.69-195.42,311.04-196.67z M268.84-196.15c0-2.29-1.86-4.15-4.15-4.15
				c-2.29,0-4.15,1.86-4.15,4.15c0,2.29,1.86,4.15,4.15,4.15C266.98-192,268.84-193.86,268.84-196.15z M318.3-211.54
				c0-0.96-0.78-1.73-1.73-1.73c-0.96,0-1.73,0.77-1.73,1.73c0,0.96,0.77,1.73,1.73,1.73C317.52-209.81,318.3-210.59,318.3-211.54z"
				/>
		</g>
		<g>
			<path class="st3" d="M131.8-133.19c-13.96,1.99-21.17-13.33-17.67-20.33c3.67-7.33,12.12-4.17,19.5-4.17
				c9.67,0,16.37-7.57,20.42-2.25C158.3-154.36,149.04-135.65,131.8-133.19z M132.32-150.67c0-1.24-1.01-2.25-2.25-2.25
				c-1.24,0-2.25,1.01-2.25,2.25c0,1.24,1.01,2.25,2.25,2.25C131.31-148.42,132.32-149.43,132.32-150.67z"/>
			<path class="st2" d="M148.8-215.86c0,7.17,4.59,13.81-1,16.33c-8.5,3.83-28-14.33-28-36.17c0-12,8.67-19,17.83-19
				c12.33,0,18,8.17,18,17.5C155.63-227.86,148.8-224.05,148.8-215.86z M143.39-221.23c0-1.15-0.93-2.08-2.07-2.08
				c-1.15,0-2.08,0.93-2.08,2.08c0,1.15,0.93,2.08,2.08,2.08C142.46-219.15,143.39-220.08,143.39-221.23z"/>
			<path class="st3" d="M146.15-104.84c0,6.23-4.15,10.72-8.65,11.59c-4.5,0.87-8.32-1.28-12.97,1.21
				c-4.84,2.59-7.09,11.07-16.78,11.07c-7.96,0-15.22-7.96-15.22-18.85c0-20.23,13.14-29.23,25.59-29.23
				C134.74-129.05,146.15-116.43,146.15-104.84z M126.44-119.19c0-2.1-1.7-3.8-3.8-3.8c-2.1,0-3.8,1.7-3.8,3.8
				c0,2.1,1.7,3.8,3.8,3.8C124.74-115.39,126.44-117.09,126.44-119.19z"/>
			<path class="st1" d="M145.46-128.53c0,1.34-1.08,2.42-2.42,2.42c-1.34,0-2.42-1.08-2.42-2.42c0-1.34,1.08-2.42,2.42-2.42
				C144.38-130.95,145.46-129.87,145.46-128.53z"/>
			<path class="st3" d="M229.16-147.04c-3.19,4.68,1.04,10.72-1.38,15.22c-2.42,4.5-6.74,5.02-9.86,2.6
				c-3.63-2.83-3.41-6.64-8.3-8.82c-5.53-2.46-17.98,2.25-19.71-7.26c-0.88-4.81,2.38-8.57,7.26-9.68
				c6.05-1.38,9.35-0.18,15.39-3.11c6.05-2.94,11.24-8.99,22.14-12.11c10.41-2.97,16.07,1.56,16.6,5.88
				C252.34-155.86,234.17-154.38,229.16-147.04z M226.91-154.47c0-1.24-1.01-2.25-2.25-2.25c-1.24,0-2.25,1.01-2.25,2.25
				c0,1.24,1.01,2.25,2.25,2.25C225.91-152.23,226.91-153.23,226.91-154.47z"/>
			<path class="st2" d="M256.13-107.86c0,17.17-14.5,25.5-27,22.83c-10.26-2.19-12.83-17.33-16.67-26.17
				c-3.71-8.56-8.83-22.5-20.17-22.5c-11.2,0-12.83,14.5-23.67,14.5c-11,0-24.5-15.67-24.5-39.67c0-14.67,9.8-31.46,20.83-30.67
				c11.67,0.83,4.5,19.67,15.33,19.67c9.5,0,7.86-16.26,9.17-23.33c1.67-9,6.83-14.17,18.5-13.17c14.44,1.24,22.33,13.5,18.87,23.34
				c-4.03,11.45-23.87,17.32-21.54,30.49c1.35,7.59,13,12,26,16.17C245.82-131.7,256.13-125.02,256.13-107.86z M211.18-183.7
				c0,1.82,1.47,3.29,3.29,3.29c1.81,0,3.29-1.47,3.29-3.29s-1.47-3.29-3.29-3.29C212.65-186.99,211.18-185.52,211.18-183.7z
				 M164.48-158.8c0-0.96-0.77-1.73-1.73-1.73c-0.96,0-1.73,0.78-1.73,1.73c0,0.96,0.78,1.73,1.73,1.73
				C163.71-157.07,164.48-157.84,164.48-158.8z M181.95-148.08c0-2.1-1.7-3.8-3.8-3.8c-2.1,0-3.8,1.7-3.8,3.8
				c0,2.1,1.71,3.8,3.8,3.8C180.25-144.27,181.95-145.97,181.95-148.08z M201.84-163.64c0-0.86-0.7-1.56-1.56-1.56
				c-0.86,0-1.56,0.7-1.56,1.56c0,0.86,0.7,1.56,1.56,1.56C201.14-162.08,201.84-162.78,201.84-163.64z M231.48-108.94
				c0-1.75-1.42-3.17-3.17-3.17c-1.75,0-3.17,1.42-3.17,3.17c0,1.75,1.42,3.17,3.17,3.17C230.06-105.77,231.48-107.19,231.48-108.94
				z"/>
			<path class="st3" d="M223.49-192.36c-7.87,2.74-19.44-15.3-17.67-27.02c1.24-8.23,7.12-13.19,13.09-14.22
				c7.53-1.3,12.9,2.6,13.3,7.24c0.55,6.31-3.63,7.52-4.22,14.96C227.43-204.26,231.68-195.21,223.49-192.36z M219.71-219.87
				c0-1.43-1.16-2.59-2.59-2.59c-1.43,0-2.59,1.16-2.59,2.59c0,1.43,1.16,2.59,2.59,2.59C218.54-217.28,219.71-218.44,219.71-219.87
				z"/>
			<path class="st2" d="M119.35-214.83c0,1.43-1.16,2.59-2.59,2.59c-1.43,0-2.59-1.16-2.59-2.59c0-1.43,1.16-2.59,2.59-2.59
				C118.19-217.42,119.35-216.26,119.35-214.83z"/>
			<path class="st2" d="M253.35-128.09c0-8.41-5.08-15.23-11.34-15.23s-11.34,6.82-11.34,15.23c0,8.41,5.08,12.44,11.34,12.44
				S253.35-119.68,253.35-128.09z"/>
			<path class="st3" d="M184.57-222.55c0.74,8.1,12.67,7.02,17.9,14.21c10.52,14.47-1.22,46.37-21.63,46.37
				c-11.74,0-24.22-9.72-24.22-29.22c0-15.83,10.17-21.5,8.25-42.17c-1.01-10.83-12.5-20.34-12.5-34.75
				c0-5.92,3.59-13.45,11.55-13.45c7.05,0,10.82,5.95,10.82,12.9c0,6.8-5.38,15.74,1.38,19.05c5.24,2.57,13.21-4.77,19.5-6.75
				c5.19-1.64,12.39,0.22,14.75,8.5c2.53,8.88-3.25,14.75-11.59,16.69C192.47-229.69,183.98-228.99,184.57-222.55z M168.59-253.11
				c0-1.82-1.47-3.29-3.29-3.29c-1.81,0-3.29,1.47-3.29,3.29c0,1.81,1.47,3.29,3.29,3.29C167.12-249.82,168.59-251.3,168.59-253.11z
				 M194.57-243.41c1.29,0,2.33-1.04,2.33-2.33c0-1.29-1.04-2.33-2.33-2.33c-1.29,0-2.33,1.04-2.33,2.33
				C192.24-244.46,193.29-243.41,194.57-243.41z M174.59-183.74c0-1.82-1.47-3.29-3.29-3.29c-1.81,0-3.29,1.47-3.29,3.29
				c0,1.81,1.47,3.29,3.29,3.29C173.12-180.46,174.59-181.93,174.59-183.74z"/>
			<path class="st1" d="M166.91-196.67c-11.76-1.38-19.37,0.35-22.65,3.11c-3.02,2.54-4.96,5.41-2.25,11.93
				c2.94,7.09,1.53,14.73-5.54,15.91c-6.22,1.04-10.89-4.84-11.24-12.28c-0.24-5.18-1.9-8.3-5.53-7.61
				c-3.63,0.69-4.63,5.9-3.63,11.76c1.38,8.13,5.54,11.76,6.23,20.23c0.49,6.05-2.94,13.66-12.45,15.04
				c-9.3,1.35-15.91-4.32-16.6-10.55c-0.73-6.59,3.63-10.89,3.11-17.64c-0.52-6.75-4.01-10.17-5.88-17.29
				c-2.77-10.55,1.21-19.02,7.78-22.65c14.75-8.15,22.83,3.64,35.97,1.56c10.9-1.73,23.35-18.16,33.03-19.54
				c8.23-1.17,13.83,4.67,15.04,14.01C183.51-201.34,177.56-195.42,166.91-196.67z M124.71-196.15c0-2.29-1.86-4.15-4.15-4.15
				c-2.29,0-4.15,1.86-4.15,4.15c0,2.29,1.86,4.15,4.15,4.15C122.85-192,124.71-193.86,124.71-196.15z M174.17-211.54
				c0-0.96-0.78-1.73-1.73-1.73c-0.96,0-1.73,0.77-1.73,1.73c0,0.96,0.77,1.73,1.73,1.73C173.4-209.81,174.17-210.59,174.17-211.54z
				"/>
			<path class="st1" d="M230.2-174.36c0,0.76-0.62,1.38-1.38,1.38c-0.76,0-1.38-0.62-1.38-1.38c0-0.76,0.62-1.38,1.38-1.38
				C229.58-175.74,230.2-175.12,230.2-174.36z"/>
			<path class="st2" d="M235.73-212.75c0,1.24-1.01,2.25-2.25,2.25s-2.25-1.01-2.25-2.25c0-1.24,1.01-2.25,2.25-2.25
				S235.73-213.99,235.73-212.75z"/>
			<path class="st3" d="M152.21-189.58c0,0.67-0.54,1.21-1.21,1.21s-1.21-0.54-1.21-1.21s0.54-1.21,1.21-1.21
				S152.21-190.25,152.21-189.58z"/>
			<path class="st3" d="M148.57-121.1c0,0.76-0.62,1.38-1.38,1.38s-1.38-0.62-1.38-1.38c0-0.76,0.62-1.38,1.38-1.38
				S148.57-121.86,148.57-121.1z"/>
			<path class="st2" d="M233.14-143.06c0,0.67-0.54,1.21-1.21,1.21s-1.21-0.54-1.21-1.21c0-0.67,0.54-1.21,1.21-1.21
				S233.14-143.73,233.14-143.06z"/>
			<path class="st1" d="M195.85-125.13c0,1.88-1.53,3.41-3.41,3.41c-1.88,0-3.41-1.53-3.41-3.41c0-1.88,1.53-3.41,3.41-3.41
				C194.32-128.54,195.85-127.02,195.85-125.13z"/>
			<path class="st2" d="M200.83-85.28c0,1.16-0.94,2.1-2.1,2.1c-1.16,0-2.1-0.94-2.1-2.1s0.94-2.1,2.1-2.1
				C199.89-87.38,200.83-86.44,200.83-85.28z"/>
			<path class="st2" d="M162.03-91.58c0,0.87-0.7,1.57-1.57,1.57c-0.87,0-1.57-0.7-1.57-1.57c0-0.87,0.71-1.57,1.57-1.57
				C161.33-93.15,162.03-92.44,162.03-91.58z"/>
			<circle class="st1" cx="233.08" cy="-205.62" r="2.62"/>
			<circle class="st3" cx="223.12" cy="-170.75" r="2.36"/>
			<path class="st2" d="M127.69-164.2c0,1.45-1.17,2.62-2.62,2.62c-1.45,0-2.62-1.17-2.62-2.62c0-1.45,1.17-2.62,2.62-2.62
				C126.51-166.82,127.69-165.65,127.69-164.2z"/>
			<path class="st3" d="M122.7-171.28c0,0.72-0.59,1.31-1.31,1.31c-0.72,0-1.31-0.59-1.31-1.31s0.59-1.31,1.31-1.31
				C122.12-172.59,122.7-172,122.7-171.28z"/>
			<path class="st2" d="M186.94-119.37c0,0.87-0.71,1.57-1.57,1.57c-0.87,0-1.57-0.7-1.57-1.57c0-0.87,0.7-1.57,1.57-1.57
				C186.23-120.94,186.94-120.24,186.94-119.37z"/>
		</g>
		<g>
			<path class="st3" d="M85.03-147.04c-3.19,4.68,1.04,10.72-1.38,15.22c-2.42,4.5-6.74,5.02-9.86,2.6
				c-3.63-2.83-3.41-6.64-8.3-8.82c-5.53-2.46-17.98,2.25-19.71-7.26c-0.88-4.81,2.38-8.57,7.26-9.68
				c6.05-1.38,9.35-0.18,15.39-3.11c6.05-2.94,11.24-8.99,22.14-12.11c10.41-2.97,16.07,1.56,16.6,5.88
				C108.21-155.86,90.04-154.38,85.03-147.04z M82.78-154.47c0-1.24-1.01-2.25-2.25-2.25c-1.24,0-2.25,1.01-2.25,2.25
				c0,1.24,1.01,2.25,2.25,2.25C81.78-152.23,82.78-153.23,82.78-154.47z"/>
			<path class="st2" d="M112-107.86c0,17.17-14.5,25.5-27,22.83c-10.26-2.19-12.83-17.33-16.67-26.17
				c-3.71-8.56-8.83-22.5-20.17-22.5c-11.2,0-12.83,14.5-23.67,14.5c-11,0-24.5-15.67-24.5-39.67c0-14.67,9.8-31.46,20.83-30.67
				c11.67,0.83,4.5,19.67,15.33,19.67c9.5,0,7.86-16.26,9.17-23.33c1.67-9,6.83-14.17,18.5-13.17c14.44,1.24,22.33,13.5,18.87,23.34
				c-4.03,11.45-23.87,17.32-21.54,30.49c1.35,7.59,13,12,26,16.17C101.69-131.7,112-125.02,112-107.86z M67.05-183.7
				c0,1.82,1.47,3.29,3.29,3.29c1.81,0,3.29-1.47,3.29-3.29s-1.47-3.29-3.29-3.29C68.52-186.99,67.05-185.52,67.05-183.7z
				 M20.36-158.8c0-0.96-0.77-1.73-1.73-1.73c-0.96,0-1.73,0.78-1.73,1.73c0,0.96,0.78,1.73,1.73,1.73
				C19.58-157.07,20.36-157.84,20.36-158.8z M37.82-148.08c0-2.1-1.7-3.8-3.8-3.8c-2.1,0-3.8,1.7-3.8,3.8c0,2.1,1.71,3.8,3.8,3.8
				C36.12-144.27,37.82-145.97,37.82-148.08z M57.71-163.64c0-0.86-0.7-1.56-1.56-1.56c-0.86,0-1.56,0.7-1.56,1.56
				c0,0.86,0.7,1.56,1.56,1.56C57.01-162.08,57.71-162.78,57.71-163.64z M87.35-108.94c0-1.75-1.42-3.17-3.17-3.17
				c-1.75,0-3.17,1.42-3.17,3.17c0,1.75,1.42,3.17,3.17,3.17C85.93-105.77,87.35-107.19,87.35-108.94z"/>
			<path class="st2" d="M109.22-128.09c0-8.41-5.08-15.23-11.34-15.23c-6.26,0-11.34,6.82-11.34,15.23
				c0,8.41,5.08,12.44,11.34,12.44C104.14-115.65,109.22-119.68,109.22-128.09z"/>
		</g>
	</g>
</pattern>
<g>
	<linearGradient id="SVGID_1_" gradientUnits="userSpaceOnUse" x1="684.5214" y1="397.3939" x2="718.6245" y2="397.3939">
		<stop  offset="0" style="stop-color:#F1BE24"/>
		<stop  offset="1" style="stop-color:#F8D726"/>
	</linearGradient>
	<path class="st4" d="M718.62,406.91l-3.4,1.35l-15.54,6.16c-0.01,0-0.03,0.01-0.04,0.01h-0.01l-13.58,5.38
		c-1.79-4.1-2.11-8.86-0.44-13.46c4.02-11.11,9.29-21.62,15.64-31.37C689.47,397.85,689.3,410.43,718.62,406.91z"/>
	
		<linearGradient id="SVGID_00000176763930072374721410000017456515478006281663_" gradientUnits="userSpaceOnUse" x1="686.05" y1="419.1941" x2="812.259" y2="419.1941">
		<stop  offset="0" style="stop-color:#ED9C17"/>
		<stop  offset="1" style="stop-color:#F4C82B"/>
	</linearGradient>
	<path style="fill:url(#SVGID_00000176763930072374721410000017456515478006281663_);" d="M808.01,449.77l-95.22-16.79l-8.27-1.46
		C690.49,427.23,696,416,696,416l-9.93,3.86c-0.01-0.02-0.01-0.03-0.02-0.05l13.58-5.38h0.01c0.01,0,0.03-0.01,0.04-0.01
		c11.83-1.69,17.5-4.03,41.87-2.03c24.39,2,13.76-20.18,0.08-14.59l23.34-9.24l46.43,55.33
		C813.57,446.47,811.33,450.35,808.01,449.77z"/>
	<g>
		
			<linearGradient id="SVGID_00000123419640401657758320000015417568890691183249_" gradientUnits="userSpaceOnUse" x1="712.4927" y1="357.9074" x2="733.7266" y2="403.2063">
			<stop  offset="0" style="stop-color:#F1BE24"/>
			<stop  offset="1" style="stop-color:#F8D726"/>
		</linearGradient>
		<path style="fill:url(#SVGID_00000123419640401657758320000015417568890691183249_);" d="M764.97,388.56l-23.34,9.24l-23.01,9.11
			c-29.32,3.52-29.15-9.06-17.37-31.93c3.41-5.28,7.16-10.33,11.19-15.13c7.42-8.83,20.98-8.89,28.4-0.05L764.97,388.56z"/>
	</g>
	
		<linearGradient id="SVGID_00000132071833539519998800000011410141313384232608_" gradientUnits="userSpaceOnUse" x1="942.4589" y1="507.6458" x2="980.93" y2="507.6458">
		<stop  offset="0" style="stop-color:#D8661D"/>
		<stop  offset="1" style="stop-color:#F0842A"/>
	</linearGradient>
	<path style="fill:url(#SVGID_00000132071833539519998800000011410141313384232608_);" d="M980.93,491.6
		c-1.47,6.77-3.38,13.37-5.71,19.78c-3.94,10.87-16.67,15.61-26.68,9.83l-1.1-0.64c-4.44-2.57-8.72-12.17,0.42-15.87L980.93,491.6z"
		/>
	
		<linearGradient id="SVGID_00000113330364169678164950000014279015640847162008_" gradientUnits="userSpaceOnUse" x1="901.82" y1="475.7482" x2="984.44" y2="475.7482">
		<stop  offset="0" style="stop-color:#DB6A1C"/>
		<stop  offset="1" style="stop-color:#F3BD29"/>
	</linearGradient>
	<path style="fill:url(#SVGID_00000113330364169678164950000014279015640847162008_);" d="M984.44,458.58v0.22
		c0,2.6-0.06,5.19-0.19,7.76l-3.32,25.04l-33.07,13.1l-16.56,6.56l-29.48-17.02c46.71,16.41,53.82-44.79,17.02-45.95l44.06-7.77
		C974.13,438.54,984.43,447.18,984.44,458.58z"/>
	
		<linearGradient id="SVGID_00000012448183555685718670000012099566003479301764_" gradientUnits="userSpaceOnUse" x1="874.9144" y1="472.6606" x2="942.3027" y2="472.6606">
		<stop  offset="0" style="stop-color:#F08E1F"/>
		<stop  offset="1" style="stop-color:#FAA82B"/>
	</linearGradient>
	<path style="fill:url(#SVGID_00000012448183555685718670000012099566003479301764_);" d="M901.82,494.24
		c-0.01-0.01-0.01-0.01-0.02-0.01l-21.3-12.3c18.5-1.47,18.44-29.38-5.59-25.89l43.91-7.75c0.01,0,0.01,0,0.02,0
		C955.64,449.45,948.53,510.65,901.82,494.24z"/>
	
		<linearGradient id="SVGID_00000052092912840651876140000001971233776949009579_" gradientUnits="userSpaceOnUse" x1="851.6273" y1="468.833" x2="893.7288" y2="468.833">
		<stop  offset="0" style="stop-color:#ED9C17"/>
		<stop  offset="1" style="stop-color:#F4C82B"/>
	</linearGradient>
	<path style="fill:url(#SVGID_00000052092912840651876140000001971233776949009579_);" d="M880.5,481.93l-27.07-15.63
		c-2.92-1.69-2.14-6.1,1.18-6.68l20.25-3.57c0.02-0.01,0.04-0.01,0.05-0.01C898.94,452.55,899,480.46,880.5,481.93z"/>
	
		<linearGradient id="SVGID_00000064341364592745219080000017261676207407044272_" gradientUnits="userSpaceOnUse" x1="676.44" y1="479.0132" x2="809.2572" y2="479.0132">
		<stop  offset="0" style="stop-color:#F1BE24"/>
		<stop  offset="1" style="stop-color:#F8D726"/>
	</linearGradient>
	<path style="fill:url(#SVGID_00000064341364592745219080000017261676207407044272_);" d="M806.27,459.62l-108.29-19.1
		c-11.23-1.98-21.53,6.66-21.54,18.06v0.22c0,12.59,1.51,24.82,4.37,36.52c0.01,0.09,0.03,0.18,0.06,0.26
		c0.28,1.14,0.57,2.27,0.88,3.4c0,0.01,0,0.01,0,0.02c1.13,4.2,2.44,8.33,3.91,12.38c0.9,2.48,2.25,4.63,3.92,6.41l90.96-35.96
		l0.03-0.01l26.88-15.52C810.37,464.61,809.59,460.2,806.27,459.62z M703.44,473.89c-3.31,0-6-2.69-6-6c0-3.31,2.69-6,6-6
		s6,2.69,6,6C709.44,471.2,706.75,473.89,703.44,473.89z M754.94,482.89c-4.14,0-7.5-3.36-7.5-7.5c0-4.14,3.36-7.5,7.5-7.5
		s7.5,3.36,7.5,7.5C762.44,479.53,759.08,482.89,754.94,482.89z"/>
	<g>
		<circle class="st12" cx="703.44" cy="467.89" r="6"/>
	</g>
	<g>
		<circle class="st12" cx="754.94" cy="475.39" r="7.5"/>
	</g>
	
		<linearGradient id="SVGID_00000041264743216368566440000001861917011787553443_" gradientUnits="userSpaceOnUse" x1="689.5845" y1="502.7587" x2="780.5444" y2="502.7587">
		<stop  offset="0" style="stop-color:#ED9C17"/>
		<stop  offset="1" style="stop-color:#F4C82B"/>
	</linearGradient>
	<path style="fill:url(#SVGID_00000041264743216368566440000001861917011787553443_);" d="M780.54,481.83l-68.2,39.38
		c-7.71,4.45-17.04,2.66-22.71-3.37c-0.02-0.02-0.03-0.03-0.05-0.05L780.54,481.83z"/>
	
		<linearGradient id="SVGID_00000060011411590008712640000016537126664573920954_" gradientUnits="userSpaceOnUse" x1="868.4545" y1="425.9739" x2="976.3684" y2="425.9739">
		<stop  offset="0" style="stop-color:#F1BE24"/>
		<stop  offset="1" style="stop-color:#F8D726"/>
	</linearGradient>
	<path style="fill:url(#SVGID_00000060011411590008712640000016537126664573920954_);" d="M961.03,430.7l-92.58,16.32l17.31-6.86
		l14.18-5.61l50.79-20.12l24-9.5c0.19,0.47,0.37,0.95,0.54,1.42C979.16,417.08,972.27,428.71,961.03,430.7z"/>
	
		<linearGradient id="SVGID_00000055709361472727282260000005402483402893360539_" gradientUnits="userSpaceOnUse" x1="862.5889" y1="408.8409" x2="974.73" y2="408.8409">
		<stop  offset="0" style="stop-color:#ED9C17"/>
		<stop  offset="1" style="stop-color:#F4C82B"/>
	</linearGradient>
	<path style="fill:url(#SVGID_00000055709361472727282260000005402483402893360539_);" d="M974.73,404.93l-24,9.5
		c-23.79,8.96-34.27,0.96-47.53-2.04s-27.26,13.32-3.26,22.16l-14.18,5.61c-23.75,9.22-28.34-4.08-17.88-18.2
		c0.01-0.01,0.01-0.02,0.03-0.03l35.13-41.87c-8.58,15.04,6.22,43.65,47.9,19.33c10.92-6.37,15.22-11.91,8.36-24.92
		c3.56,5.41,6.78,11.06,9.63,16.92l0.04,0.09c2.92,6.63-9.67,19.22-9.67,19.22L974.73,404.93z"/>
	<line class="st0" x1="974.73" y1="404.93" x2="968.97" y2="391.48"/>
	
		<linearGradient id="SVGID_00000107575042596288547840000007414562029017604024_" gradientUnits="userSpaceOnUse" x1="848.6254" y1="435.893" x2="885.7645" y2="435.893">
		<stop  offset="0" style="stop-color:#E48D19"/>
		<stop  offset="1" style="stop-color:#F3BD29"/>
	</linearGradient>
	<path style="fill:url(#SVGID_00000107575042596288547840000007414562029017604024_);" d="M885.76,440.16l-17.31,6.86l-0.02,0.01
		l-15.56,2.74c-3.32,0.58-5.56-3.3-3.39-5.88l18.4-21.93C857.42,436.08,862.01,449.38,885.76,440.16z"/>
	<path class="st17" d="M950.73,414.43l-50.79,20.12c-24-8.84-10-25.16,3.26-22.16S926.94,423.39,950.73,414.43z"/>
	<path class="st18" d="M950.94,399.39c-41.68,24.32-56.48-4.29-47.9-19.33l17-20.26c7.42-8.84,20.98-8.78,28.4,0.05
		c3.9,4.65,7.53,9.52,10.86,14.61c0,0.01,0,0.01,0,0.01C966.16,387.48,961.86,393.02,950.94,399.39z"/>
	
		<linearGradient id="SVGID_00000164488280078513446250000007877157620143004326_" gradientUnits="userSpaceOnUse" x1="708.1474" y1="530.0949" x2="817.8779" y2="530.0949">
		<stop  offset="0" style="stop-color:#E48D19"/>
		<stop  offset="1" style="stop-color:#F3BD29"/>
	</linearGradient>
	<path style="fill:url(#SVGID_00000164488280078513446250000007877157620143004326_);" d="M817.65,479.32l-32.72,89.91l-19.88,7.87
		l-1.27,0.5l-0.09,0.04l-20.44,8.09c-11.46-7.87-21.79-17.26-30.72-27.87c-7.43-8.84-5.15-22.24,4.85-28.01l95.07-54.89
		C815.37,473.27,818.8,476.15,817.65,479.32z"/>
	<path class="st20" d="M784.93,569.23l-4.83,13.27c-3.24,8.9-12.43,13.57-21.14,11.77c-15.8-4.91-2.03-13.75,4.73-16.63l0.09-0.04
		l1.27-0.5L784.93,569.23z"/>
	<path class="st20" d="M880.02,580.41l-7.47-20.52c4.47,0.1,8.14-0.03,10.39-0.5c16.96-3.56,16.7-29.42-8-25l-10.24,3.93l-0.22-0.6
		l19.73-7.81c0.33-0.14,0.66-0.27,0.99-0.4C930.19,512.25,940.7,598.36,880.02,580.41z"/>
	
		<linearGradient id="SVGID_00000129919266068261474160000012690986405395508372_" gradientUnits="userSpaceOnUse" x1="880.0245" y1="555.3062" x2="952.7371" y2="555.3062">
		<stop  offset="0" style="stop-color:#D8661D"/>
		<stop  offset="1" style="stop-color:#F0842A"/>
	</linearGradient>
	<path style="fill:url(#SVGID_00000129919266068261474160000012690986405395508372_);" d="M948.35,557.86
		c-11.48,13.64-25.28,25.27-40.8,34.26c-10,5.8-22.81,1.25-26.77-9.62l-0.76-2.09c60.68,17.95,50.17-68.16,5.18-50.9l34.24-13.55
		l24.06,13.89C953.5,535.62,955.78,549.02,948.35,557.86z"/>
	<path class="st22" d="M848.43,474.96c-2.92-1.69-6.35,1.19-5.2,4.36l21.25,58.4l19.73-7.81c0.33-0.14,0.66-0.27,0.99-0.4
		l34.24-13.55L848.43,474.96z M870.94,515.89c-3.04,0-5.5-2.46-5.5-5.5c0-3.04,2.46-5.5,5.5-5.5s5.5,2.46,5.5,5.5
		C876.44,513.43,873.98,515.89,870.94,515.89z"/>
	<g>
		<circle class="st12" cx="870.94" cy="510.39" r="5.5"/>
	</g>
	
		<linearGradient id="SVGID_00000176002804863873043730000013404257283584165798_" gradientUnits="userSpaceOnUse" x1="788.3646" y1="577.1" x2="872.5154" y2="577.1">
		<stop  offset="0" style="stop-color:#D8661D"/>
		<stop  offset="1" style="stop-color:#F0842A"/>
	</linearGradient>
	<path style="fill:url(#SVGID_00000176002804863873043730000013404257283584165798_);" d="M857.13,610.49
		c-8.67,1.52-17.59,2.31-26.69,2.31s-18.02-0.79-26.69-2.31c-11.36-1.99-18.21-13.72-14.26-24.57l1.75-4.8C794,574,806,561,806,561
		l-4.53,1.67l53.71-21.27l0.18,0.49l-34.32,13.16c0,0,0.02,0,0.06,0.01c2.76,0.54,5.39,1.09,7.89,1.65
		c1.15,0.26,2.27,0.52,3.37,0.78c1.2,0.29,2.37,0.57,3.5,0.86c1.09,0.28,2.16,0.56,3.19,0.83c3.72,1,7.11,2.02,10.19,3.05
		c0.43,0.14,0.87,0.29,1.29,0.43c2.26,0.77,4.34,1.54,6.27,2.3c0.52,0.21,1.03,0.42,1.52,0.62c2.55,1.05,4.8,2.09,6.79,3.1h0.01
		l6.27,17.24C875.34,596.77,868.49,608.5,857.13,610.49z"/>
	<g>
		<path class="st12" d="M839.05,559.18c-1.03-0.27-2.1-0.55-3.19-0.83C836.95,558.62,838.02,558.9,839.05,559.18z"/>
	</g>
	
		<linearGradient id="SVGID_00000117652339409229138040000000524586680808162962_" gradientUnits="userSpaceOnUse" x1="797.36" y1="522.3312" x2="855.18" y2="522.3312">
		<stop  offset="0" style="stop-color:#E48D19"/>
		<stop  offset="1" style="stop-color:#F3BD29"/>
	</linearGradient>
	<path style="fill:url(#SVGID_00000117652339409229138040000000524586680808162962_);" d="M855.18,541.4l-53.71,21.27l-4.11,1.63
		l0.05-0.13l29.64-81.43c1.15-3.17,5.63-3.17,6.78,0L855.18,541.4z"/>
	<path class="st25" d="M865.11,568.68c-1.99-1.01-4.24-2.05-6.79-3.1c-0.49-0.2-1-0.41-1.52-0.62c-1.93-0.76-4.01-1.53-6.27-2.3
		c-0.42-0.14-0.86-0.29-1.29-0.43c-3.08-1.03-6.47-2.05-10.19-3.05c-1.03-0.28-2.1-0.56-3.19-0.83c-1.13-0.29-2.3-0.57-3.5-0.86
		c-1.1-0.26-2.22-0.52-3.37-0.78c-2.5-0.56-5.13-1.11-7.89-1.65c1.33,0.18,22.85,3.05,40.62,4.29L865.11,568.68z"/>
	<g>
		<path class="st12" d="M839.05,559.18c-1.03-0.27-2.1-0.55-3.19-0.83C836.95,558.62,838.02,558.9,839.05,559.18z"/>
	</g>
	<g>
		<path class="st12" d="M835.44,327.58v-2.24c0-11.42,10.26-20.21,21.52-18.26c0.5,0.09,1,0.18,1.5,0.28
			C843.26,306.09,835.99,316.55,835.44,327.58z"/>
	</g>
	<path class="st17" d="M912.77,330.02l-24.69,9.78c-0.01,0.01-0.01,0.01-0.02,0.01c-38.88,12.14-41.27-21.61-19.67-30.28
		c13.86,3.5,26.97,8.89,39.05,15.88C909.57,326.64,911.35,328.21,912.77,330.02z"/>
	<path class="st18" d="M912.4,353.35l-70.58,84.11c-2.17,2.59-6.38,1.05-6.38-2.32V330.33c0.67,13.2,10.79,25.91,28.32,19.1
		c0.08-0.03,0.16-0.06,0.23-0.09l24.07-9.53c0.01,0,0.01,0,0.02-0.01l24.69-9.78C917.99,336.66,918.23,346.41,912.4,353.35z"/>
	<path class="st17" d="M825.44,325.34v9.65c-19.51,54.39-71.41,6.41-54.39-18.31c0.01,0,0.01-0.01,0.01-0.01
		c10.42-4.35,21.42-7.6,32.86-9.59C815.18,305.13,825.44,313.92,825.44,325.34z"/>
	
		<linearGradient id="SVGID_00000050649237154428977460000018389758182813102992_" gradientUnits="userSpaceOnUse" x1="744.1501" y1="348.5714" x2="825.44" y2="348.5714">
		<stop  offset="0" style="stop-color:#F1BE24"/>
		<stop  offset="1" style="stop-color:#F8D726"/>
	</linearGradient>
	<path style="fill:url(#SVGID_00000050649237154428977460000018389758182813102992_);" d="M825.44,334.99v29.62l-38.97,15.45
		c-7.52,2.06-18.46-4.05-25.78-12.16v-0.01l-12.21-14.54c-7.41-8.83-5.02-22.18,4.96-27.94c5.66-3.27,11.54-6.19,17.61-8.73
		C754.03,341.4,805.93,389.38,825.44,334.99z"/>
	
		<linearGradient id="SVGID_00000163768675716247190560000010583949380129217189_" gradientUnits="userSpaceOnUse" x1="774.77" y1="393.555" x2="825.44" y2="393.555">
		<stop  offset="0" style="stop-color:#ED9C17"/>
		<stop  offset="1" style="stop-color:#F4C82B"/>
	</linearGradient>
	<path style="fill:url(#SVGID_00000163768675716247190560000010583949380129217189_);" d="M825.44,364.61v50.1
		c-4.36-11.2-24.27-3.99-18.94,7.79l-31.11-37.08l-0.62-0.74l11.47-4.54c0.02-0.01,0.05-0.02,0.09-0.03
		c0.04-0.01,0.08-0.03,0.14-0.05c3.33-1.1,38.47-12.09,38.47,11.33L825.44,364.61z"/>
	<path class="st18" d="M825.44,414.71v20.43c0,3.37-4.21,4.91-6.38,2.32l-12.55-14.95c-0.01-0.01-0.01-0.01-0.01-0.01
		C801.17,410.72,821.08,403.51,825.44,414.71z"/>
</g>
<path class="st12" d="M629.52,436.99L629.52,436.99z"/>
<path class="st12" d="M521.94,461.39L521.94,461.39z"/>
<path class="st0" d="M1084.1,454.94c0.01,0,0.01,0,0.02-0.01l0.36-0.14"/>
<path class="st0" d="M1025.01,474.14c0.28-0.11,0.56-0.22,0.85-0.33"/>
<linearGradient id="SVGID_00000034071495209078832100000006110668641953697411_" gradientUnits="userSpaceOnUse" x1="821.0444" y1="546.9014" x2="894.7214" y2="546.9014">
	<stop  offset="0" style="stop-color:#ED9C17"/>
	<stop  offset="1" style="stop-color:#F4C82B"/>
</linearGradient>
<path style="fill:url(#SVGID_00000034071495209078832100000006110668641953697411_);" d="M882.94,559.39
	c-2.25,0.47-5.92,0.6-10.39,0.5l-10.83-0.54c-17.77-1.24-39.29-4.11-40.62-4.29c-0.04-0.01-0.06-0.01-0.06-0.01l34.32-13.16
	l-0.18-0.49l9.3-3.68l0.22,0.6l10.24-3.93C899.64,529.97,899.9,555.83,882.94,559.39z"/>
<path class="st12" d="M731,169L731,169z"/>
<linearGradient id="SVGID_00000144309583609220795420000006373291816817997495_" gradientUnits="userSpaceOnUse" x1="835.4445" y1="329.2906" x2="888.0645" y2="329.2906">
	<stop  offset="0" style="stop-color:#F1BE24"/>
	<stop  offset="1" style="stop-color:#F8D726"/>
</linearGradient>
<path style="fill:url(#SVGID_00000144309583609220795420000006373291816817997495_);" d="M888.06,339.81l-24.07,9.53
	c-0.07,0.03-0.15,0.06-0.23,0.09c-17.53,6.81-27.65-5.9-28.32-19.1v-2.75c0.55-11.03,7.82-21.49,23.02-20.22
	c3.35,0.6,6.66,1.33,9.93,2.17C846.79,318.2,849.18,351.95,888.06,339.81z"/>
<path class="st0" d="M867.94,309.39c-3.45-1.15-6.61-1.8-9.48-2.03"/>
<path class="st0" d="M835.44,330.33c-0.05-0.92-0.05-1.84,0-2.75"/>
<path class="st0" d="M863.99,349.34c14.56-5.65,23.23-9.01,28.38-11.01c0.73-0.27,1.48-0.56,2.24-0.87
	c5.33-2.07,5.33-2.07,5.33-2.07"/>
<path class="st0" d="M888.08,339.8c1.38-0.43,2.81-0.92,4.29-1.47c0.73-0.27,1.48-0.56,2.24-0.87"/>
<path class="st0" d="M871.94,308.39c-1.25,0.31-2.43,0.69-3.55,1.14"/>
<path class="st17" d="M1035.27,298.39l-78.84,33.5c33.51-15.11,47.2-53.92,68.85-53.5C1050.04,278.87,1047.2,293.39,1035.27,298.39z
	"/>
<path class="st17" d="M741.55,412.39c-24.37-2-30.04,0.34-41.87,2.03l15.54-6.16l3.4-1.35l23.01-9.11
	C755.31,392.21,765.94,414.39,741.55,412.39z"/>
<path class="st0" d="M825.94,416.39c-0.13-0.6-0.3-1.16-0.5-1.68"/>
<path class="st0" d="M806.94,423.39c-0.16-0.3-0.31-0.59-0.43-0.88"/>
<path class="st0" d="M869.94,419.39c-0.73,0.85-1.41,1.69-2.03,2.54"/>
<path class="st0" d="M907.31,374.98"/>
<path class="st0" d="M904.94,377.39c-0.73,0.82-1.36,1.72-1.9,2.67"/>
<path class="st0" d="M959.3,374.46c-0.68-1.28-1.46-2.63-2.36-4.07"/>
<path class="st0" d="M874.86,456.05c-0.05,0-0.11,0.01-0.16,0.02"/>
<path class="st0" d="M640.94,667.39"/>
<path class="st12" d="M872.55,559.89c-3.27-0.07-6.96-0.27-10.83-0.54L872.55,559.89z"/>
<circle class="st17" cx="673.44" cy="330.89" r="15"/>
<circle class="st18" cx="649.72" cy="432.61" r="4.28"/>
<circle class="st17" cx="879.94" cy="364.39" r="3.5"/>
<circle class="st17" cx="703.44" cy="467.89" r="6"/>
<circle class="st18" cx="870.94" cy="510.39" r="5.5"/>
<circle class="st30" cx="754.94" cy="475.39" r="7.5"/>
<circle class="st17" cx="1002.94" cy="374.39" r="7.5"/>
<linearGradient id="SVGID_00000069398254633955330960000006759022821867389581_" gradientUnits="userSpaceOnUse" x1="694" y1="608.5" x2="709" y2="608.5">
	<stop  offset="0" style="stop-color:#F08E1F"/>
	<stop  offset="1" style="stop-color:#FAA82B"/>
</linearGradient>
<circle style="fill:url(#SVGID_00000069398254633955330960000006759022821867389581_);" cx="701.5" cy="608.5" r="7.5"/>
<circle class="st17" cx="925.5" cy="622.5" r="11.5"/>
<linearGradient id="SVGID_00000168831901218438605310000004299651204669872275_" gradientUnits="userSpaceOnUse" x1="980.9344" y1="479.0789" x2="1025.0144" y2="479.0789">
	<stop  offset="0" style="stop-color:#F1BE24"/>
	<stop  offset="1" style="stop-color:#F8D726"/>
</linearGradient>
<path style="fill:url(#SVGID_00000168831901218438605310000004299651204669872275_);" d="M984.25,466.56
	c4.15,11.96,17.09,16.47,40.76,7.58l-44.08,17.46L984.25,466.56z"/>
<path class="st0" d="M1026.94,473.39c-0.36,0.14-0.72,0.28-1.08,0.42c-0.29,0.11-0.57,0.22-0.85,0.33"/>
<path class="st0" d="M984.25,466.56c-1.39-3.97-1.8-8.77-1.31-14.17"/>
<path class="st22" d="M1082.63,455.04l-22.72,9.16c10.21-4.91,7.83-13.42,17.1-17.73C1087.52,441.58,1090.3,451.2,1082.63,455.04z"
	/>
<g>
	<path class="st12" d="M1059.91,464.19c-0.89,0.43-1.87,0.83-2.97,1.2L1059.91,464.19z"/>
</g>
<path class="st0" d="M841.96,450.39"/>
<linearGradient id="SVGID_00000049904829448176456370000015592339421159091874_" gradientUnits="userSpaceOnUse" x1="649.9445" y1="516.1939" x2="689.5845" y2="516.1939">
	<stop  offset="0" style="stop-color:#F1BE24"/>
	<stop  offset="1" style="stop-color:#F8D726"/>
</linearGradient>
<path style="fill:url(#SVGID_00000049904829448176456370000015592339421159091874_);" d="M689.58,517.79l-19.21,7.6l-0.52,0.2
	l-19.91,7.8c0,0,33.95-25.96,31.81-34.39c1.13,4.2,2.44,8.33,3.91,12.38C686.56,513.86,687.91,516.01,689.58,517.79z"/>
<line class="st0" x1="689.63" y1="517.84" x2="670.37" y2="525.39"/>
<linearGradient id="SVGID_00000014603019891568585860000003435727865490825897_" gradientUnits="userSpaceOnUse" x1="568.4548" y1="543.1687" x2="634.8544" y2="543.1687">
	<stop  offset="0" style="stop-color:#F1BE24"/>
	<stop  offset="1" style="stop-color:#F8D726"/>
</linearGradient>
<path style="fill:url(#SVGID_00000014603019891568585860000003435727865490825897_);" d="M634.85,539.43c0,0-0.04,0.01-0.12,0.04
	c-2.53,0.73-45.64,13.16-50.79,12.92c-20.17-0.97-21.13-21.71,0-18C595.96,536.5,634.85,539.43,634.85,539.43z"/>
<linearGradient id="SVGID_00000003785276148687067770000006736138995689176965_" gradientUnits="userSpaceOnUse" x1="786.4745" y1="377.9989" x2="825.4445" y2="377.9989">
	<stop  offset="0" style="stop-color:#E48D19"/>
	<stop  offset="1" style="stop-color:#F3BD29"/>
</linearGradient>
<path style="fill:url(#SVGID_00000003785276148687067770000006736138995689176965_);" d="M825.44,364.61l-0.5,26.78
	c0-23.42-35.14-12.43-38.47-11.33L825.44,364.61z"/>
<path class="st12" d="M1071.78,487.74L1071.78,487.74z"/>
<path class="st12" d="M1138.78,265.17L1138.78,265.17z"/>
<path class="st36" d="M862.86,735.71"/>
<path class="st18" d="M774.77,384.68l11.47-4.54c0.02-0.01,0.05-0.02,0.09-0.03c0.04-0.01,0.08-0.03,0.14-0.05L774.77,384.68z"/>
<path class="st0" d="M713,433c-0.07-0.01-0.14-0.01-0.21-0.02c-3.32-0.26-6.05-0.77-8.27-1.46C690.49,427.23,696,416,696,416
	l-9.93,3.86L678,423l10.44,8.83"/>
<path class="st0" d="M797.06,564.3l0.35-0.13l4.06-1.5L806,561c0,0-12,13-14.76,20.12"/>
<linearGradient id="SVGID_00000118361805686195399590000009108048754667933065_" gradientUnits="userSpaceOnUse" x1="751.6608" y1="585.6849" x2="765.05" y2="585.6849">
	<stop  offset="0" style="stop-color:#E48D19"/>
	<stop  offset="1" style="stop-color:#F3BD29"/>
</linearGradient>
<path style="fill:url(#SVGID_00000118361805686195399590000009108048754667933065_);" d="M765.05,577.1l-6.09,17.17
	c-15.8-4.91-2.03-13.75,4.73-16.63l0.09-0.04C764.24,577.4,764.67,577.24,765.05,577.1z"/>
<linearGradient id="SVGID_00000042012874704463869530000008988114795404915344_" gradientUnits="userSpaceOnUse" x1="743.2545" y1="585.7289" x2="743.2545" y2="585.7289">
	<stop  offset="0" style="stop-color:#E48D19"/>
	<stop  offset="1" style="stop-color:#F3BD29"/>
</linearGradient>
<path style="fill:url(#SVGID_00000042012874704463869530000008988114795404915344_);" d="M743.25,585.73L743.25,585.73z"/>
<polyline class="st0" points="743.25,585.73 763.69,577.64 763.78,577.6 765.05,577.1 "/>
<path class="st39" d="M947.44,520.57L947.44,520.57z"/>
</svg>
